<svg xmlns="http://www.w3.org/2000/svg" width="202" height="27" fill="none" xmlns:v="https://vecta.io/nano"><path d="M42.7 21V1.2h5.436c1.408 0 2.716.252 3.924.756a9.73 9.73 0 0 1 3.168 2.112 9.67 9.67 0 0 1 2.124 3.156c.512 1.2.768 2.496.768 3.888 0 1.4-.252 2.7-.756 3.9-.504 1.192-1.212 2.24-2.124 3.144-.904.896-1.964 1.596-3.18 2.1-1.208.496-2.516.744-3.924.744H42.7zm3.888-3.48h1.116c.896 0 1.724-.16 2.484-.48a5.95 5.95 0 0 0 1.98-1.344c.56-.576.996-1.252 1.308-2.028.312-.784.468-1.64.468-2.568 0-.92-.156-1.768-.468-2.544-.312-.784-.748-1.464-1.308-2.04-.56-.584-1.22-1.036-1.98-1.356s-1.588-.48-2.484-.48h-1.116v12.84zM67.036 21V1.2h11.016v3.408h-7.128v4.764h6.84v3.408h-6.84v4.812h7.128V21H67.036zm25.933.384c-.92 0-1.768-.104-2.544-.312-.776-.2-1.472-.452-2.088-.756-.608-.312-1.132-.632-1.572-.96a10.88 10.88 0 0 1-1.044-.864l1.992-3.216.948.78a10.71 10.71 0 0 0 1.236.828c.456.256.948.472 1.476.648.536.168 1.104.252 1.704.252.56 0 1.052-.088 1.476-.264.432-.176.772-.436 1.02-.78.248-.352.372-.788.372-1.308 0-.472-.1-.872-.3-1.2-.2-.336-.496-.636-.888-.9-.384-.272-.86-.536-1.428-.792l-1.92-.864c-.536-.24-1.048-.512-1.536-.816a6.71 6.71 0 0 1-1.284-1.08 4.95 4.95 0 0 1-.9-1.38c-.216-.52-.324-1.1-.324-1.74a5.4 5.4 0 0 1 .456-2.184c.304-.696.736-1.316 1.296-1.86.568-.544 1.24-.976 2.016-1.296.784-.32 1.656-.48 2.616-.48a8.35 8.35 0 0 1 2.16.288c.72.192 1.392.444 2.016.756s1.152.652 1.584 1.02l-1.62 3.048c-.344-.296-.736-.56-1.176-.792-.432-.24-.896-.432-1.392-.576a5.23 5.23 0 0 0-1.488-.216c-.568 0-1.052.1-1.452.3-.392.2-.696.468-.912.804-.208.328-.312.696-.312 1.104 0 .336.068.624.204.864.144.232.344.436.6.612.256.168.564.332.924.492l1.188.492 2.52 1.164c.752.384 1.396.812 1.932 1.284.536.464.944 1.008 1.224 1.632.288.624.432 1.368.432 2.232 0 1.264-.304 2.348-.912 3.252-.6.904-1.44 1.596-2.52 2.076-1.08.472-2.34.708-3.78.708zm16.2-.384V1.2h3.888V21h-3.888zm22.584.384c-1.36 0-2.628-.26-3.804-.78s-2.204-1.244-3.084-2.172c-.88-.936-1.568-2.028-2.064-3.276s-.744-2.6-.744-4.056c0-1.392.232-2.704.696-3.936.464-1.24 1.132-2.332 2.004-3.276.872-.952 1.924-1.696 3.156-2.232 1.232-.544 2.612-.816 4.14-.816a12.08 12.08 0 0 1 2.604.288 12.09 12.09 0 0 1 2.532.852 9.74 9.74 0 0 1 2.184 1.356l-1.824 3.012c-.696-.648-1.54-1.148-2.532-1.5-.984-.36-1.956-.54-2.916-.54-.944 0-1.78.168-2.508.504a5.05 5.05 0 0 0-1.824 1.392c-.496.6-.872 1.304-1.128 2.112-.256.8-.384 1.672-.384 2.616 0 1.032.144 1.968.432 2.808s.688 1.564 1.2 2.172c.52.608 1.124 1.076 1.812 1.404.696.328 1.444.492 2.244.492.64 0 1.256-.104 1.848-.312a5.29 5.29 0 0 0 1.596-.9c.464-.384.832-.836 1.104-1.356a3.62 3.62 0 0 0 .408-1.704v-.3h-5.196v-3.012h9.156v3c0 1.208-.252 2.312-.756 3.312-.496.992-1.176 1.852-2.04 2.58-.864.72-1.84 1.28-2.928 1.68a9.91 9.91 0 0 1-3.384.588zM149.778 21V1.2h3.888l8.532 13.32V1.2h3.888V21h-3.888l-8.532-13.32V21h-3.888zm35.247.384a9.6 9.6 0 0 1-3.888-.792c-1.208-.528-2.268-1.26-3.18-2.196-.912-.944-1.628-2.036-2.148-3.276-.512-1.248-.768-2.584-.768-4.008s.256-2.756.768-3.996c.52-1.248 1.236-2.34 2.148-3.276a9.88 9.88 0 0 1 3.18-2.208 9.6 9.6 0 0 1 3.888-.792 9.6 9.6 0 0 1 3.888.792 9.88 9.88 0 0 1 3.18 2.208 10.18 10.18 0 0 1 2.136 3.276c.52 1.24.78 2.572.78 3.996s-.26 2.76-.78 4.008c-.512 1.24-1.224 2.332-2.136 3.276-.912.936-1.972 1.668-3.18 2.196a9.6 9.6 0 0 1-3.888.792zm-.012-3.744c.848 0 1.624-.16 2.328-.48a5.46 5.46 0 0 0 1.836-1.356c.52-.584.924-1.272 1.212-2.064.288-.8.432-1.676.432-2.628s-.144-1.824-.432-2.616c-.288-.8-.692-1.492-1.212-2.076a5.46 5.46 0 0 0-1.836-1.356c-.704-.32-1.48-.48-2.328-.48-.832 0-1.604.16-2.316.48a5.46 5.46 0 0 0-1.836 1.356c-.52.584-.924 1.276-1.212 2.076-.28.792-.42 1.664-.42 2.616s.14 1.828.42 2.628c.288.792.692 1.48 1.212 2.064a5.46 5.46 0 0 0 1.836 1.356c.712.32 1.484.48 2.316.48z" fill="#fff"/><circle cx="12" cy="12" r="12" transform="matrix(0 -1 -1 0 24 24)" fill="url(#A)"/><defs><radialGradient id="A" cx="0" cy="0" r="1" gradientUnits="userSpaceOnUse" gradientTransform="translate(12 12) scale(12)"><stop stop-color="#e7816b" stop-opacity=".01"/><stop offset=".999" stop-color="#e7816b"/></radialGradient></defs></svg>