<svg width="181" height="108" viewBox="0 0 181 108" fill="none" xmlns="http://www.w3.org/2000/svg">
<path d="M54.2012 43.9337L58.9013 39.103L54.2012 43.9337Z" fill="white"/>
<path d="M54.2009 44.2037C54.131 44.2043 54.0638 44.1768 54.0141 44.1274C53.9094 44.022 53.9094 43.8513 54.0141 43.7459L58.685 38.9152C58.7894 38.8149 58.954 38.8155 59.0576 38.9165C59.1613 39.0176 59.1669 39.1829 59.0704 39.2909L54.3702 44.1215C54.3252 44.1681 54.2652 44.1972 54.2009 44.2037Z" fill="#231F20"/>
<path d="M58.9013 43.9337L54.2012 39.103L58.9013 43.9337Z" fill="white"/>
<path d="M58.9006 44.2037C58.8281 44.203 58.7589 44.1734 58.708 44.1215L54.037 39.2909C53.9871 39.2412 53.959 39.1736 53.959 39.103C53.959 39.0325 53.9871 38.9648 54.037 38.9152C54.1418 38.81 54.3117 38.81 54.4165 38.9152L59.1167 43.7459C59.2183 43.8525 59.2183 44.0207 59.1167 44.1274C59.0601 44.1847 58.9805 44.2128 58.9006 44.2037Z" fill="#231F20"/>
<path d="M58.9014 43.9337L63.6015 39.103L58.9014 43.9337Z" fill="white"/>
<path d="M58.9007 44.2037C58.8307 44.2049 58.7632 44.1774 58.7139 44.1274C58.6123 44.0207 58.6123 43.8525 58.7139 43.7459L63.3848 38.9152C63.4342 38.865 63.5015 38.8368 63.5717 38.8368C63.6419 38.8368 63.7092 38.865 63.7585 38.9152C63.81 38.964 63.8391 39.032 63.8391 39.103C63.8391 39.1741 63.81 39.2421 63.7585 39.2909L59.0876 44.1215C59.0381 44.172 58.9712 44.2014 58.9007 44.2037Z" fill="#231F20"/>
<path d="M63.6015 43.9337L58.9014 39.103L63.6015 43.9337Z" fill="white"/>
<path d="M63.6015 44.2037C63.529 44.203 63.4597 44.1734 63.4088 44.1215L58.7378 39.2909C58.6413 39.1829 58.6469 39.0176 58.7506 38.9165C58.8542 38.8155 59.0188 38.8149 59.1232 38.9152L63.7941 43.7459C63.8459 43.7957 63.8751 43.8646 63.8751 43.9366C63.8751 44.0087 63.8459 44.0776 63.7941 44.1274C63.7443 44.1802 63.6737 44.2081 63.6015 44.2037Z" fill="#231F20"/>
<path d="M63.6006 43.9337L68.2949 39.103L63.6006 43.9337Z" fill="white"/>
<path d="M63.6013 44.2037C63.531 44.2064 63.463 44.1786 63.4144 44.1274C63.3098 44.022 63.3098 43.8513 63.4144 43.7459L68.1146 38.9152C68.2209 38.8318 68.3722 38.8406 68.4683 38.9357C68.5644 39.0308 68.5754 39.1827 68.4941 39.2909L63.794 44.1215C63.7431 44.1734 63.6738 44.203 63.6013 44.2037Z" fill="#231F20"/>
<path d="M68.2949 43.9337L63.6006 39.103L68.2949 43.9337Z" fill="white"/>
<path d="M68.3124 44.2037C68.2414 44.2041 68.1735 44.1743 68.1256 44.1215L63.4254 39.2909C63.3441 39.1827 63.3552 39.0308 63.4512 38.9357C63.5473 38.8406 63.6987 38.8318 63.8049 38.9152L68.5051 43.7459C68.6098 43.8513 68.6098 44.022 68.5051 44.1274C68.4544 44.1789 68.3845 44.2066 68.3124 44.2037Z" fill="#231F20"/>
<path d="M68.2949 43.9337L72.9951 39.103L68.2949 43.9337Z" fill="white"/>
<path d="M68.3132 44.2037C68.2433 44.2043 68.1761 44.1768 68.1264 44.1274C68.0217 44.022 68.0217 43.8513 68.1264 43.7459L72.7973 38.9152C72.9017 38.8149 73.0663 38.8155 73.1699 38.9165C73.2736 39.0176 73.2792 39.1829 73.1827 39.2909L68.5117 44.1215C68.4594 44.1749 68.3877 44.2045 68.3132 44.2037Z" fill="#231F20"/>
<path d="M72.9951 43.9337L68.2949 39.103L72.9951 43.9337Z" fill="white"/>
<path d="M72.9837 44.2037C72.9111 44.203 72.8419 44.1734 72.791 44.1215L68.12 39.2909C68.0701 39.2412 68.042 39.1736 68.042 39.103C68.042 39.0325 68.0701 38.9648 68.12 38.9152C68.2249 38.81 68.3947 38.81 68.4995 38.9152L73.1705 43.7459C73.2721 43.8525 73.2721 44.0207 73.1705 44.1274C73.1208 44.1768 73.0535 44.2043 72.9837 44.2037Z" fill="#231F20"/>
<path d="M72.9951 43.9337L77.6953 39.103L72.9951 43.9337Z" fill="white"/>
<path d="M72.9837 44.2037C72.9137 44.2049 72.8462 44.1774 72.7969 44.1274C72.6953 44.0207 72.6953 43.8525 72.7969 43.7459L77.497 38.9152C77.6019 38.81 77.7717 38.81 77.8766 38.9152C77.9265 38.9648 77.9546 39.0325 77.9546 39.103C77.9546 39.1736 77.9265 39.2412 77.8766 39.2909L73.2056 44.1215C73.1478 44.1812 73.0662 44.2114 72.9837 44.2037Z" fill="#231F20"/>
<path d="M77.6953 43.9337L72.9951 39.103L77.6953 43.9337Z" fill="white"/>
<path d="M77.6961 44.2037C77.6236 44.203 77.5543 44.1734 77.5034 44.1215L72.8032 39.2909C72.7067 39.1829 72.7123 39.0176 72.816 38.9165C72.9196 38.8155 73.0842 38.8149 73.1886 38.9152L77.8596 43.7459C77.9642 43.8513 77.9642 44.022 77.8596 44.1274C77.8157 44.1714 77.7578 44.1984 77.6961 44.2037Z" fill="#231F20"/>
<path d="M77.6953 43.9337L82.3896 39.103L77.6953 43.9337Z" fill="white"/>
<path d="M77.696 44.2037C77.626 44.2049 77.5585 44.1774 77.5092 44.1274C77.4045 44.022 77.4045 43.8513 77.5092 43.7459L82.1801 38.9152C82.2864 38.8318 82.4378 38.8406 82.5338 38.9357C82.6299 39.0308 82.641 39.1827 82.5597 39.2909L77.8595 44.1215C77.8159 44.1669 77.7582 44.1959 77.696 44.2037Z" fill="#231F20"/>
<path d="M82.3896 43.9337L77.6953 39.103L82.3896 43.9337Z" fill="white"/>
<path d="M82.3897 44.2037C82.3189 44.2027 82.2516 44.1731 82.2028 44.1215L77.5319 39.2909C77.4506 39.1827 77.4616 39.0308 77.5577 38.9357C77.6538 38.8406 77.8051 38.8318 77.9114 38.9152L82.6115 43.7459C82.7162 43.8513 82.7162 44.022 82.6115 44.1274C82.5541 44.1873 82.4715 44.2157 82.3897 44.2037Z" fill="#231F20"/>
<path d="M82.3896 43.9337L87.0898 39.103L82.3896 43.9337Z" fill="white"/>
<path d="M82.3903 44.2037C82.3205 44.2043 82.2532 44.1768 82.2035 44.1274C82.0988 44.022 82.0988 43.8513 82.2035 43.7459L86.8745 38.9152C86.9788 38.8149 87.1434 38.8155 87.2471 38.9165C87.3507 39.0176 87.3564 39.1829 87.2598 39.2909L82.5597 44.1215C82.5146 44.1681 82.4547 44.1972 82.3903 44.2037Z" fill="#231F20"/>
<path d="M87.0898 43.9337L82.3896 39.103L87.0898 43.9337Z" fill="white"/>
<path d="M87.0901 44.2037C87.0176 44.203 86.9483 44.1734 86.8974 44.1215L82.2265 39.2909C82.1765 39.2412 82.1484 39.1736 82.1484 39.103C82.1484 39.0325 82.1765 38.9648 82.2265 38.9152C82.3313 38.81 82.5011 38.81 82.606 38.9152L87.3061 43.7459C87.4077 43.8525 87.4077 44.0207 87.3061 44.1274C87.2495 44.1847 87.1699 44.2128 87.0901 44.2037Z" fill="#231F20"/>
<path d="M93.8105 43.9337L98.5107 39.103L93.8105 43.9337Z" fill="white"/>
<path d="M93.8103 44.2037C93.7404 44.2043 93.6731 44.1768 93.6234 44.1274C93.5188 44.022 93.5188 43.8513 93.6234 43.7459L98.2944 38.9152C98.3988 38.8149 98.5633 38.8155 98.667 38.9165C98.7707 39.0176 98.7763 39.1829 98.6798 39.2909L94.0029 44.1215C93.952 44.1734 93.8828 44.203 93.8103 44.2037Z" fill="#231F20"/>
<path d="M98.5107 43.9337L93.8105 39.103L98.5107 43.9337Z" fill="white"/>
<path d="M98.511 44.2037C98.4385 44.203 98.3692 44.1734 98.3183 44.1215L93.6473 39.2909C93.5974 39.2412 93.5693 39.1736 93.5693 39.103C93.5693 39.0325 93.5974 38.9648 93.6473 38.9152C93.7522 38.81 93.922 38.81 94.0269 38.9152L98.727 43.7459C98.8286 43.8525 98.8286 44.0207 98.727 44.1274C98.6709 44.1855 98.5909 44.2137 98.511 44.2037Z" fill="#231F20"/>
<path d="M98.5107 43.9337L103.211 39.103L98.5107 43.9337Z" fill="white"/>
<path d="M98.5111 44.2037C98.4412 44.2043 98.3739 44.1768 98.3242 44.1274C98.2227 44.0207 98.2227 43.8525 98.3242 43.7459L103.024 38.9152C103.129 38.81 103.299 38.81 103.404 38.9152C103.454 38.9648 103.482 39.0325 103.482 39.103C103.482 39.1736 103.454 39.2412 103.404 39.2909L98.7329 44.1215C98.6751 44.1812 98.5936 44.2114 98.5111 44.2037Z" fill="#231F20"/>
<path d="M103.211 43.9337L98.5107 39.103L103.211 43.9337Z" fill="white"/>
<path d="M103.211 44.2037C103.138 44.203 103.069 44.1734 103.018 44.1215L98.3179 39.2909C98.2213 39.1829 98.227 39.0176 98.3306 38.9165C98.4343 38.8155 98.5989 38.8149 98.7032 38.9152L103.374 43.7459C103.479 43.8513 103.479 44.022 103.374 44.1274C103.33 44.1714 103.272 44.1984 103.211 44.2037Z" fill="#231F20"/>
<path d="M103.211 43.9337L107.905 39.103L103.211 43.9337Z" fill="white"/>
<path d="M103.211 44.2037C103.141 44.2049 103.074 44.1774 103.024 44.1274C102.923 44.0207 102.923 43.8525 103.024 43.7459L107.725 38.9152C107.831 38.8318 107.982 38.8406 108.078 38.9357C108.174 39.0308 108.185 39.1827 108.104 39.2909L103.433 44.1215C103.377 44.1844 103.294 44.2152 103.211 44.2037Z" fill="#231F20"/>
<path d="M107.905 43.9337L103.211 39.103L107.905 43.9337Z" fill="white"/>
<path d="M107.905 44.2037C107.835 44.2014 107.768 44.172 107.718 44.1215L103.018 39.2909C102.917 39.1862 102.917 39.0199 103.018 38.9152C103.067 38.865 103.135 38.8368 103.205 38.8368C103.275 38.8368 103.342 38.865 103.392 38.9152L108.063 43.7459C108.167 43.8513 108.167 44.022 108.063 44.1274C108.021 44.1714 107.965 44.1986 107.905 44.2037Z" fill="#231F20"/>
<path d="M107.905 43.9337L112.605 39.103L107.905 43.9337Z" fill="white"/>
<path d="M107.906 44.2037C107.837 44.2047 107.772 44.177 107.725 44.1274C107.673 44.0776 107.644 44.0087 107.644 43.9366C107.644 43.8646 107.673 43.7957 107.725 43.7459L112.396 38.9152C112.445 38.865 112.512 38.8368 112.582 38.8368C112.653 38.8368 112.72 38.865 112.769 38.9152C112.87 39.0199 112.87 39.1862 112.769 39.2909L108.069 44.1215C108.025 44.1669 107.968 44.1959 107.906 44.2037Z" fill="#231F20"/>
<path d="M112.605 43.9337L107.905 39.103L112.605 43.9337Z" fill="white"/>
<path d="M112.605 44.2037C112.534 44.2041 112.466 44.1743 112.419 44.1215L107.748 39.2909C107.696 39.2421 107.667 39.1741 107.667 39.103C107.667 39.032 107.696 38.964 107.748 38.9152C107.797 38.865 107.864 38.8368 107.934 38.8368C108.005 38.8368 108.072 38.865 108.121 38.9152L112.821 43.7459C112.923 43.8525 112.923 44.0207 112.821 44.1274C112.765 44.1855 112.685 44.2137 112.605 44.2037Z" fill="#231F20"/>
<path d="M112.605 43.9337L117.306 39.103L112.605 43.9337Z" fill="white"/>
<path d="M112.605 44.2037C112.535 44.2043 112.468 44.1768 112.418 44.1274C112.314 44.022 112.314 43.8513 112.418 43.7459L117.089 38.9152C117.194 38.8149 117.358 38.8155 117.462 38.9165C117.566 39.0176 117.571 39.1829 117.475 39.2909L112.775 44.1215C112.729 44.1681 112.669 44.1972 112.605 44.2037Z" fill="#231F20"/>
<path d="M117.306 43.9337L112.605 39.103L117.306 43.9337Z" fill="white"/>
<path d="M117.306 44.2037C117.233 44.203 117.164 44.1734 117.113 44.1215L112.442 39.2909C112.392 39.2412 112.364 39.1736 112.364 39.103C112.364 39.0325 112.392 38.9648 112.442 38.9152C112.547 38.81 112.717 38.81 112.822 38.9152L117.522 43.7459C117.624 43.8525 117.624 44.0207 117.522 44.1274C117.465 44.1847 117.386 44.2128 117.306 44.2037Z" fill="#231F20"/>
<path d="M117.306 43.9337L122.006 39.103L117.306 43.9337Z" fill="white"/>
<path d="M117.306 44.2037C117.236 44.2049 117.168 44.1774 117.119 44.1274C117.018 44.0207 117.018 43.8525 117.119 43.7459L121.79 38.9152C121.839 38.865 121.907 38.8368 121.977 38.8368C122.047 38.8368 122.114 38.865 122.164 38.9152C122.215 38.964 122.244 39.032 122.244 39.103C122.244 39.1741 122.215 39.2421 122.164 39.2909L117.493 44.1215C117.443 44.172 117.376 44.2014 117.306 44.2037Z" fill="#231F20"/>
<path d="M122.006 43.9337L117.306 39.103L122.006 43.9337Z" fill="white"/>
<path d="M122.029 44.2037C121.957 44.203 121.887 44.1734 121.837 44.1215L117.166 39.2909C117.069 39.1829 117.075 39.0176 117.178 38.9165C117.282 38.8155 117.447 38.8149 117.551 38.9152L122.222 43.7459C122.274 43.7957 122.303 43.8646 122.303 43.9366C122.303 44.0087 122.274 44.0776 122.222 44.1274C122.172 44.1802 122.101 44.2081 122.029 44.2037Z" fill="#231F20"/>
<path d="M122.006 43.9337L126.7 39.103L122.006 43.9337Z" fill="white"/>
<path d="M122.029 44.2037C121.959 44.2049 121.892 44.1774 121.842 44.1274C121.738 44.022 121.738 43.8513 121.842 43.7459L126.542 38.9152C126.592 38.865 126.659 38.8368 126.729 38.8368C126.799 38.8368 126.867 38.865 126.916 38.9152C127.017 39.0199 127.017 39.1862 126.916 39.2909L122.245 44.1215C122.189 44.1795 122.11 44.2096 122.029 44.2037Z" fill="#231F20"/>
<path d="M126.7 43.9337L122.006 39.103L126.7 43.9337Z" fill="white"/>
<path d="M126.7 44.2037C126.629 44.2041 126.561 44.1743 126.513 44.1215L121.813 39.2909C121.732 39.1827 121.743 39.0308 121.839 38.9357C121.935 38.8406 122.086 38.8318 122.193 38.9152L126.864 43.7459C126.965 43.8525 126.965 44.0207 126.864 44.1274C126.82 44.1718 126.762 44.1989 126.7 44.2037Z" fill="#231F20"/>
<path d="M132.113 39.1852H48.8877C48.817 39.1868 48.7487 39.1597 48.6981 39.11C48.6476 39.0603 48.6191 38.9922 48.6191 38.9211C48.6191 38.772 48.7394 38.6511 48.8877 38.6511H132.113C132.261 38.6511 132.381 38.772 132.381 38.9211C132.381 38.9922 132.353 39.0603 132.302 39.11C132.252 39.1597 132.183 39.1868 132.113 39.1852Z" fill="#231F20"/>
<rect x="52.2744" y="85.1204" width="76.4462" height="2.67065" fill="white"/>
<path fill-rule="evenodd" clip-rule="evenodd" d="M52.2735 88.0435H128.726C128.868 88.0435 128.985 87.9288 128.988 87.7852V85.1087C128.988 84.9628 128.871 84.8446 128.726 84.8446H52.2735C52.1284 84.8446 52.0107 84.9628 52.0107 85.1087V87.7794C52.0107 87.9252 52.1284 88.0435 52.2735 88.0435ZM128.451 87.527H52.5479V85.3904H128.451V87.527Z" fill="#231F20"/>
<path d="M128.726 87.797V103.645H119.571C119.571 103.645 113.318 89.4404 90.5004 89.4404C67.6828 89.4404 61.4295 103.645 61.4295 103.645H52.2744V87.797H128.726Z" fill="white"/>
<path fill-rule="evenodd" clip-rule="evenodd" d="M119.571 103.891H128.727C128.875 103.891 128.995 103.77 128.995 103.621V87.7735C128.995 87.7019 128.967 87.6332 128.916 87.5826C128.866 87.5319 128.798 87.5035 128.727 87.5035H52.2744C52.2032 87.5035 52.1349 87.5319 52.0845 87.5826C52.0342 87.6332 52.0059 87.7019 52.0059 87.7735V103.621C52.0059 103.693 52.0342 103.762 52.0845 103.812C52.1349 103.863 52.2032 103.891 52.2744 103.891H61.4295C61.5343 103.889 61.6289 103.828 61.6748 103.733C61.7331 103.592 68.1382 89.6811 90.5005 89.6811C112.863 89.6811 119.268 103.592 119.326 103.733C119.372 103.828 119.467 103.889 119.571 103.891ZM128.452 103.357H119.741V103.381C118.947 101.802 111.923 89.1528 90.5063 89.1528C69.0899 89.1528 62.0601 101.784 61.2661 103.363H52.5489V88.0435H128.452V103.357Z" fill="#231F20"/>
<rect x="49.3486" y="43.9337" width="82.3025" height="2.44761" fill="#231F20"/>
<path fill-rule="evenodd" clip-rule="evenodd" d="M49.3251 46.6748H131.651C131.73 46.6748 131.807 46.6423 131.862 46.5847C131.917 46.5271 131.946 46.4494 131.943 46.3696V43.9337C131.943 43.7716 131.812 43.6402 131.651 43.6402H49.3251C49.1639 43.6402 49.0332 43.7716 49.0332 43.9337V46.3813C49.0332 46.5434 49.1639 46.6748 49.3251 46.6748ZM131.371 46.0878H49.6404L49.6288 44.2272H131.371V46.0878Z" fill="#231F20"/>
<path d="M87.1895 37.935L90.5 35.64L93.8105 37.935V43.9337H87.1895V37.935Z" fill="#E7816B"/>
<path fill-rule="evenodd" clip-rule="evenodd" d="M86.9209 43.9337C86.9209 44.0828 87.0411 44.2037 87.1895 44.2037H93.8106C93.9589 44.2037 94.0792 44.0828 94.0792 43.9337V37.935C94.0793 37.8458 94.0356 37.7624 93.9624 37.712L90.6518 35.417C90.559 35.3585 90.4411 35.3585 90.3482 35.417L87.0377 37.712C86.9645 37.7624 86.9208 37.8458 86.9209 37.935V43.9337ZM93.5478 38.0759V43.6696H87.4522V38.0759L90.5 35.9628L93.5478 38.0759Z" fill="#231F20"/>
<path d="M87.1894 42.6306C87.1187 42.6322 87.0504 42.6051 86.9998 42.5554C86.9493 42.5057 86.9208 42.4376 86.9208 42.3665V36.3326C86.9053 36.2277 86.9523 36.1235 87.0409 36.066C87.1295 36.0085 87.2434 36.0085 87.332 36.066C87.4207 36.1235 87.4676 36.2277 87.4521 36.3326V42.3665C87.4521 42.5124 87.3345 42.6306 87.1894 42.6306Z" fill="#231F20"/>
<path d="M93.8105 42.6306C93.6654 42.6306 93.5478 42.5124 93.5478 42.3665V36.3326C93.5323 36.2277 93.5792 36.1235 93.6679 36.066C93.7565 36.0085 93.8704 36.0085 93.959 36.066C94.0476 36.1235 94.0946 36.2277 94.0791 36.3326V42.3665C94.0791 42.4376 94.0506 42.5057 94.0001 42.5554C93.9495 42.6051 93.8812 42.6322 93.8105 42.6306Z" fill="#231F20"/>
<path d="M90.4999 35.91C90.3529 35.9069 90.2345 35.7878 90.2314 35.64V33.973C90.2314 33.8239 90.3516 33.703 90.4999 33.703C90.6483 33.703 90.7685 33.8239 90.7685 33.973V35.64C90.7654 35.7878 90.647 35.9069 90.4999 35.91Z" fill="#231F20"/>
<path d="M0.321248 85.1087V69.4311C19.0051 66.3026 37.689 43.3937 37.689 43.3937L36.6614 47.9074C36.6614 47.9074 17.633 69.525 0.30957 71.5383" fill="#231F20"/>
<path fill-rule="evenodd" clip-rule="evenodd" d="M0.0292969 85.1204C0.0292969 85.2825 0.160001 85.4139 0.321232 85.4139C0.400725 85.414 0.476806 85.3815 0.531903 85.3239C0.587 85.2663 0.616348 85.1885 0.613168 85.1087V71.8024C17.7848 69.6189 36.7022 48.3241 36.8891 48.107C36.9247 48.0719 36.9491 48.0269 36.9591 47.9778L37.9809 43.4641C38.0075 43.333 37.9459 43.1997 37.8291 43.1354C37.7057 43.0778 37.559 43.1116 37.4729 43.2176C37.4711 43.2198 37.4676 43.2241 37.4623 43.2305C36.923 43.8795 18.4585 66.1036 0.274523 69.1435C0.133032 69.169 0.0298597 69.2925 0.0292969 69.437V71.5383V85.1204ZM0.613168 71.2037V69.6776C16.9791 66.7898 33.4326 48.7761 37.1518 44.4913L36.4045 47.7665C35.3243 48.9757 17.1192 69.0554 0.613168 71.2037Z" fill="#231F20"/>
<path d="M5.97332 85.3904C5.90262 85.3905 5.83489 85.3618 5.78544 85.311C5.736 85.2602 5.70901 85.1915 5.71058 85.1204V70.247C5.73015 70.1146 5.84316 70.0167 5.97624 70.0167C6.10932 70.0167 6.22234 70.1146 6.2419 70.247V85.1087C6.24685 85.1828 6.22055 85.2555 6.16945 85.3091C6.11835 85.3627 6.04716 85.3923 5.97332 85.3904Z" fill="#231F20"/>
<path d="M12.0163 85.3904C11.9446 85.3921 11.8753 85.3641 11.8246 85.3131C11.7739 85.2622 11.7461 85.1925 11.7477 85.1204V67.682C11.7673 67.5496 11.8803 67.4517 12.0134 67.4517C12.1464 67.4517 12.2594 67.5496 12.279 67.682V85.1087C12.2839 85.1817 12.2583 85.2535 12.2085 85.307C12.1587 85.3604 12.0891 85.3906 12.0163 85.3904Z" fill="#231F20"/>
<path d="M18.3279 85.3904C18.2567 85.3904 18.1884 85.362 18.138 85.3113C18.0877 85.2607 18.0594 85.192 18.0594 85.1204V63.9783C18.0594 63.8291 18.1796 63.7083 18.3279 63.7083C18.4763 63.7083 18.5965 63.8291 18.5965 63.9783V85.1087C18.5997 85.1823 18.5728 85.254 18.5221 85.3072C18.4714 85.3604 18.4012 85.3905 18.3279 85.3904Z" fill="#231F20"/>
<path d="M24.6393 85.3904C24.5686 85.3904 24.5009 85.3618 24.4515 85.311C24.402 85.2602 24.375 85.1915 24.3766 85.1204V59.2826C24.3962 59.1503 24.5092 59.0523 24.6423 59.0523C24.7753 59.0523 24.8884 59.1503 24.9079 59.2826V85.1087C24.9129 85.1828 24.8866 85.2555 24.8355 85.3091C24.7844 85.3627 24.7132 85.3922 24.6393 85.3904Z" fill="#231F20"/>
<path d="M44.7773 6.2863C44.6312 6.28634 44.5119 6.16899 44.5087 6.02217V0.692607C44.5087 0.543491 44.629 0.422607 44.7773 0.422607C44.9256 0.422607 45.0459 0.543491 45.0459 0.692607V6.02217C45.0427 6.16899 44.9234 6.28634 44.7773 6.2863Z" fill="#231F20"/>
<path d="M44.0298 7.43087H45.5245L52.0055 34.2196H37.5488L44.0298 7.43087Z" fill="#231F20"/>
<path fill-rule="evenodd" clip-rule="evenodd" d="M37.5542 34.5072H52.0051C52.0978 34.5095 52.1863 34.4683 52.2444 34.3957C52.2988 34.326 52.3181 34.2351 52.297 34.1491L45.8219 7.3663C45.7942 7.23288 45.6772 7.1373 45.5416 7.13739H44.0294C43.8931 7.13892 43.7753 7.23319 43.7433 7.3663L37.2681 34.1491C37.247 34.2351 37.2664 34.326 37.3207 34.3957C37.3776 34.4666 37.4636 34.5077 37.5542 34.5072ZM51.6314 33.9202H37.9221L44.2571 7.72435H45.2964L51.6314 33.9202Z" fill="#231F20"/>
<rect x="44.0352" y="5.42348" width="1.48887" height="2.00739" fill="#231F20"/>
<path fill-rule="evenodd" clip-rule="evenodd" d="M44.0585 7.72434H45.5416C45.7028 7.72434 45.8335 7.59295 45.8335 7.43087V5.42348C45.8335 5.26139 45.7028 5.13 45.5416 5.13H44.0585C43.8973 5.13 43.7666 5.26139 43.7666 5.42348V7.43087C43.7666 7.59295 43.8973 7.72434 44.0585 7.72434ZM45.273 7.13739H44.3738V5.71695H45.273V7.13739Z" fill="#231F20"/>
<path d="M47.9356 33.3391V26.9941L44.7769 21.6528L41.6182 26.9941V33.3391H38.582V84.1167H50.9718V33.3391H47.9356Z" fill="#E7816B"/>
<path fill-rule="evenodd" clip-rule="evenodd" d="M38.5879 84.3867H50.9718C51.1156 84.3836 51.2315 84.2672 51.2346 84.1226V33.345C51.2346 33.1991 51.1169 33.0809 50.9718 33.0809H48.1984V27C48.1987 26.9527 48.1866 26.9061 48.1634 26.865L45.0047 21.5237C44.9537 21.4475 44.8683 21.4018 44.7769 21.4018C44.6856 21.4018 44.6002 21.4475 44.5492 21.5237L41.3905 26.865C41.3673 26.9061 41.3552 26.9527 41.3555 27V33.075H38.5879C38.5172 33.0734 38.4489 33.1005 38.3983 33.1503C38.3478 33.2 38.3193 33.268 38.3193 33.3391V84.1167C38.3193 84.2659 38.4396 84.3867 38.5879 84.3867ZM50.7032 83.8467H38.8507L38.7923 33.6091H41.5598C41.7082 33.6091 41.8284 33.4882 41.8284 33.3391V27.0646L44.7478 22.1752L47.6671 27.0646V33.3391C47.6702 33.4869 47.7887 33.606 47.9357 33.6091H50.7032V83.8467Z" fill="#231F20"/>
<path d="M50.9722 38.2578H38.5883C38.484 38.2734 38.3803 38.2262 38.3231 38.1371C38.266 38.048 38.266 37.9335 38.3231 37.8444C38.3803 37.7553 38.484 37.7081 38.5883 37.7237H50.9722C51.1039 37.7434 51.2013 37.857 51.2013 37.9908C51.2013 38.1245 51.1039 38.2382 50.9722 38.2578Z" fill="#231F20"/>
<path d="M42.5878 47.9367H40.6318V41.5741C40.6318 41.0283 41.6127 40.1478 41.6127 40.1478C41.6127 40.1478 42.5878 41.0283 42.5878 41.5741V47.9367Z" fill="#231F20"/>
<path d="M45.7577 47.9367H43.79V41.5741C43.79 41.0283 44.7709 40.1478 44.7709 40.1478C44.7709 40.1478 45.7518 41.0283 45.7518 41.5741L45.7577 47.9367Z" fill="#231F20"/>
<path d="M48.9228 47.9367H46.9668V41.5741C46.9668 41.0283 47.9419 40.1478 47.9419 40.1478C47.9419 40.1478 48.9228 41.0283 48.9228 41.5741V47.9367Z" fill="#231F20"/>
<path d="M42.5878 59.8696H40.6318V53.4776C40.6318 52.9376 41.6127 52.0513 41.6127 52.0513C41.6127 52.0513 42.5878 52.9376 42.5878 53.4776V59.8696Z" fill="#231F20"/>
<path d="M45.7577 59.8696H43.79V53.4776C43.79 52.9376 44.7709 52.0513 44.7709 52.0513C44.7709 52.0513 45.7518 52.9376 45.7518 53.4776L45.7577 59.8696Z" fill="#231F20"/>
<path d="M48.9228 59.8696H46.9668V53.4776C46.9668 52.9376 47.9419 52.0513 47.9419 52.0513C47.9419 52.0513 48.9228 52.9376 48.9228 53.4776V59.8696Z" fill="#231F20"/>
<path d="M42.5878 71.7554H40.6318V65.387C40.6318 64.8411 41.6127 63.9606 41.6127 63.9606C41.6127 63.9606 42.5878 64.8411 42.5878 65.387V71.7554Z" fill="#231F20"/>
<path d="M45.7577 71.7554H43.79V65.387C43.79 64.8411 44.7709 63.9606 44.7709 63.9606C44.7709 63.9606 45.7518 64.8411 45.7518 65.387L45.7577 71.7554Z" fill="#231F20"/>
<path d="M48.9228 71.7554H46.9668V65.387C46.9668 64.8411 47.9419 63.9606 47.9419 63.9606C47.9419 63.9606 48.9228 64.8411 48.9228 65.387V71.7554Z" fill="#231F20"/>
<path d="M50.5287 75.2713H39.0264C38.8803 75.2713 38.761 75.154 38.7578 75.0072C38.7609 74.8594 38.8794 74.7403 39.0264 74.7372H50.5287C50.6757 74.7403 50.7941 74.8594 50.7972 75.0072C50.7941 75.154 50.6747 75.2713 50.5287 75.2713Z" fill="#231F20"/>
<path d="M36.5267 13.6115L39.481 24.9222H33.5723L36.5267 13.6115Z" fill="#231F20"/>
<path fill-rule="evenodd" clip-rule="evenodd" d="M33.573 25.2391H39.4817C39.5674 25.2338 39.6464 25.1909 39.6978 25.1217C39.7548 25.0511 39.7744 24.9571 39.7503 24.8693L36.7959 13.5587C36.7587 13.4277 36.6396 13.3373 36.504 13.3373C36.3684 13.3373 36.2493 13.4277 36.2121 13.5587L33.2927 24.8693C33.2689 24.9562 33.2861 25.0493 33.3394 25.1217C33.3957 25.1942 33.4815 25.2374 33.573 25.2391ZM39.1197 24.6522H33.9525L36.5449 14.7854L39.1197 24.6522Z" fill="#231F20"/>
<path d="M34.6348 24.9222L34.7574 43.7752L35.8842 46.7922V84.1167H39.5101V46.4107L38.6284 44.4326V24.9222H34.6348Z" fill="#E7816B"/>
<path fill-rule="evenodd" clip-rule="evenodd" d="M35.8843 84.3867H39.5102C39.6549 84.3806 39.77 84.2624 39.7729 84.1167V46.4107C39.7789 46.3757 39.7789 46.34 39.7729 46.305L38.9146 44.3739V24.9222C38.9146 24.7731 38.7944 24.6522 38.646 24.6522H34.6524C34.5826 24.6522 34.5156 24.6796 34.4655 24.7285C34.4139 24.7797 34.3845 24.8493 34.3838 24.9222L34.5122 43.7752C34.5067 43.8063 34.5067 43.8381 34.5122 43.8691L35.6158 46.8391V84.1167C35.6189 84.2645 35.7373 84.3836 35.8843 84.3867ZM39.2416 83.8467H36.1529L36.1588 46.7863C36.1638 46.7552 36.1638 46.7235 36.1588 46.6924L35.0494 43.7224L34.9268 25.1863H38.3833V44.4326C38.3779 44.4696 38.3779 44.5072 38.3833 44.5441L39.2416 46.4693V83.8467Z" fill="#231F20"/>
<path d="M38.6292 37.442H34.7173C34.6129 37.4575 34.5092 37.4103 34.452 37.3212C34.3949 37.2321 34.3949 37.1176 34.452 37.0286C34.5092 36.9395 34.6129 36.8922 34.7173 36.9078H38.6292C38.7335 36.8922 38.8372 36.9395 38.8944 37.0286C38.9516 37.1176 38.9516 37.2321 38.8944 37.3212C38.8372 37.4103 38.7335 37.4575 38.6292 37.442Z" fill="#231F20"/>
<path d="M39.5101 47.0563H35.8842C35.7799 47.0719 35.6762 47.0247 35.619 46.9356C35.5619 46.8465 35.5619 46.732 35.619 46.6429C35.6762 46.5538 35.7799 46.5066 35.8842 46.5222H39.5101C39.6144 46.5066 39.7181 46.5538 39.7753 46.6429C39.8324 46.732 39.8324 46.8465 39.7753 46.9356C39.7181 47.0247 39.6144 47.0719 39.5101 47.0563Z" fill="#231F20"/>
<path d="M53.0276 13.6115L50.0732 24.9222H55.982L53.0276 13.6115Z" fill="#231F20"/>
<path fill-rule="evenodd" clip-rule="evenodd" d="M49.8449 25.1217C49.8987 25.194 49.9827 25.2373 50.0726 25.2391H55.9813C56.0789 25.2429 56.1724 25.1992 56.2324 25.1217C56.2869 25.0499 56.3062 24.9571 56.285 24.8693L53.3306 13.5587C53.2933 13.4277 53.1742 13.3373 53.0386 13.3373C52.9031 13.3373 52.7839 13.4277 52.7467 13.5587L49.7923 24.8693C49.7683 24.9571 49.7878 25.0511 49.8449 25.1217ZM53.027 14.7854L55.6018 24.6522H50.4521L53.027 14.7854Z" fill="#231F20"/>
<path d="M54.9193 24.9222L54.7967 43.7752L53.6698 46.7922V84.1167H50.0439V46.4107L50.9256 44.4326V24.9222H54.9193Z" fill="#E7816B"/>
<path fill-rule="evenodd" clip-rule="evenodd" d="M50.0436 84.3867H53.6694C53.8119 84.3776 53.9236 84.2602 53.9263 84.1167V46.8391L55.0357 43.8691C55.0385 43.8379 55.0385 43.8065 55.0357 43.7752L55.1641 24.9222C55.1675 24.8496 55.1403 24.7789 55.0892 24.7275C55.038 24.6762 54.9678 24.6488 54.8956 24.6522H50.9019C50.7535 24.6522 50.6333 24.7731 50.6333 24.9222V44.3739L49.775 46.305C49.769 46.34 49.769 46.3757 49.775 46.4107V84.1167C49.7781 84.2645 49.8966 84.3836 50.0436 84.3867ZM53.4008 83.8467H50.3122L50.318 46.4693L51.1763 44.5441C51.1846 44.5074 51.1846 44.4693 51.1763 44.4326V25.1863H54.6328L54.5102 43.7224L53.4008 46.6924C53.3958 46.7235 53.3958 46.7552 53.4008 46.7863V83.8467Z" fill="#231F20"/>
<path d="M54.8372 37.442H50.9253C50.8209 37.4575 50.7172 37.4103 50.6601 37.3212C50.6029 37.2321 50.6029 37.1176 50.6601 37.0286C50.7172 36.9395 50.8209 36.8922 50.9253 36.9078H54.8372C54.9415 36.8922 55.0452 36.9395 55.1024 37.0286C55.1596 37.1176 55.1596 37.2321 55.1024 37.3212C55.0452 37.4103 54.9415 37.4575 54.8372 37.442Z" fill="#231F20"/>
<path d="M53.6693 47.0563H50.0434C49.9391 47.0719 49.8354 47.0247 49.7782 46.9356C49.7211 46.8465 49.7211 46.732 49.7782 46.6429C49.8354 46.5538 49.9391 46.5066 50.0434 46.5222H53.6693C53.7736 46.5066 53.8773 46.5538 53.9345 46.6429C53.9916 46.732 53.9916 46.8465 53.9345 46.9356C53.8773 47.0247 53.7736 47.0719 53.6693 47.0563Z" fill="#231F20"/>
<path d="M36.5273 14.3452C36.379 14.3452 36.2587 14.2243 36.2587 14.0752V11.4398C36.2587 11.2907 36.379 11.1698 36.5273 11.1698C36.6756 11.1698 36.7959 11.2907 36.7959 11.4398V14.087C36.7896 14.2315 36.6712 14.3454 36.5273 14.3452Z" fill="#231F20"/>
<path d="M53.0273 14.3452C52.9566 14.3452 52.8889 14.3166 52.8394 14.2658C52.79 14.215 52.763 14.1463 52.7646 14.0752V11.4398C52.749 11.3349 52.796 11.2306 52.8847 11.1732C52.9733 11.1157 53.0872 11.1157 53.1758 11.1732C53.2644 11.2306 53.3114 11.3349 53.2959 11.4398V14.087C53.2943 14.157 53.2652 14.2236 53.2148 14.272C53.1644 14.3205 53.097 14.3468 53.0273 14.3452Z" fill="#231F20"/>
<rect x="31.8271" y="84.1167" width="25.8772" height="19.5339" fill="#E7816B"/>
<path fill-rule="evenodd" clip-rule="evenodd" d="M31.8272 103.891H57.7102C57.8478 103.892 57.9638 103.788 57.9788 103.651V84.1167C57.9757 83.9689 57.8572 83.8499 57.7102 83.8467H31.8272C31.6811 83.8499 31.5644 83.9699 31.5645 84.1167V103.627C31.5645 103.773 31.6821 103.891 31.8272 103.891ZM57.4591 103.381H32.1133V84.3867H57.4591V103.381Z" fill="#231F20"/>
<path d="M45.7577 34.2137H43.79V27.8511C43.79 27.3052 44.7709 26.4248 44.7709 26.4248C44.7709 26.4248 45.7518 27.3052 45.7518 27.8511L45.7577 34.2137Z" fill="#231F20"/>
<path fill-rule="evenodd" clip-rule="evenodd" d="M43.79 34.5072H45.7576C45.9166 34.504 46.0438 34.3735 46.0437 34.2137V27.8511C46.0437 27.2054 45.1446 26.3661 44.9636 26.2076C44.8544 26.1076 44.6874 26.1076 44.5782 26.2076C44.3972 26.3661 43.498 27.2054 43.498 27.8511V34.2137C43.498 34.3758 43.6288 34.5072 43.79 34.5072ZM45.4657 33.9202H44.0878V27.8511C44.2206 27.4539 44.4588 27.1008 44.7767 26.8298C45.0946 27.1008 45.3328 27.4539 45.4657 27.8511V33.9202Z" fill="#231F20"/>
<rect x="0.321289" y="85.1204" width="31.5057" height="2.67065" fill="white"/>
<path fill-rule="evenodd" clip-rule="evenodd" d="M0.297898 88.0435H31.8269C31.8966 88.0451 31.9641 88.0187 32.0144 87.9703C32.0648 87.9218 32.094 87.8553 32.0955 87.7852V85.1087C32.0955 85.0376 32.067 84.9695 32.0165 84.9198C31.966 84.8701 31.8976 84.843 31.8269 84.8446H0.297898C0.228215 84.8446 0.161385 84.8724 0.112112 84.9219C0.0628379 84.9715 0.0351562 85.0386 0.0351562 85.1087V87.7793C0.0351562 87.9252 0.15279 88.0435 0.297898 88.0435ZM31.5642 87.527H0.583995V85.3904H31.5642V87.527Z" fill="#231F20"/>
<rect x="0.321289" y="87.797" width="31.5057" height="15.8537" fill="white"/>
<path fill-rule="evenodd" clip-rule="evenodd" d="M0.298023 103.891H31.8271C31.8977 103.893 31.9661 103.866 32.0166 103.816C32.0672 103.766 32.0957 103.698 32.0956 103.627V87.7793C32.0972 87.7073 32.0695 87.6376 32.0187 87.5866C31.968 87.5356 31.8988 87.5077 31.8271 87.5093H0.298023C0.227316 87.5093 0.159586 87.538 0.110141 87.5888C0.0606962 87.6396 0.0337098 87.7083 0.0352811 87.7793V103.627C0.0352811 103.773 0.152915 103.891 0.298023 103.891ZM31.5643 103.381H0.58412V88.0435H31.5643V103.381Z" fill="#231F20"/>
<path d="M30.9452 85.3904C30.8735 85.3921 30.8043 85.3641 30.7536 85.3131C30.7028 85.2621 30.6751 85.1925 30.6767 85.1204V53.7241C30.6612 53.6193 30.7081 53.515 30.7968 53.4575C30.8854 53.4001 30.9993 53.4001 31.0879 53.4575C31.1765 53.515 31.2235 53.6193 31.208 53.7241V85.1087C31.2128 85.1817 31.1873 85.2535 31.1375 85.307C31.0877 85.3604 31.0181 85.3906 30.9452 85.3904Z" fill="#231F20"/>
<path d="M180.679 85.1087V69.4311C161.995 66.3026 143.312 43.3937 143.312 43.3937L144.339 47.9074C144.339 47.9074 163.367 69.525 180.691 71.5383" fill="#231F20"/>
<path fill-rule="evenodd" clip-rule="evenodd" d="M180.387 85.1204C180.387 85.2825 180.517 85.4139 180.679 85.4139C180.763 85.4225 180.847 85.3938 180.909 85.3352C180.97 85.2766 181.004 85.1939 181 85.1087V71.5089V69.4076C180.999 69.2631 180.896 69.1396 180.755 69.1141C162.57 66.0742 144.106 43.85 143.567 43.2011C143.561 43.1947 143.558 43.1904 143.556 43.1883C143.47 43.0822 143.323 43.0484 143.2 43.1061C143.083 43.1703 143.022 43.3036 143.048 43.4348L144.041 47.972C144.051 48.021 144.075 48.066 144.111 48.1011C144.298 48.3183 163.215 69.613 180.387 71.7965V85.1204ZM180.387 71.2037C163.863 69.0554 145.676 48.9756 144.595 47.7665L143.848 44.4913C147.567 48.7761 164.038 66.7898 180.387 69.6776V71.2037Z" fill="#231F20"/>
<path d="M175.027 85.3904C174.955 85.3921 174.886 85.3641 174.835 85.3131C174.785 85.2622 174.757 85.1925 174.758 85.1204V70.247C174.778 70.1146 174.891 70.0167 175.024 70.0167C175.157 70.0167 175.27 70.1146 175.29 70.247V85.1087C175.295 85.1818 175.269 85.2535 175.219 85.307C175.169 85.3604 175.1 85.3906 175.027 85.3904Z" fill="#231F20"/>
<path d="M168.984 85.3904C168.915 85.3859 168.85 85.3537 168.804 85.3008C168.758 85.2479 168.734 85.1788 168.739 85.1087V67.682C168.759 67.5496 168.872 67.4517 169.005 67.4517C169.138 67.4517 169.251 67.5496 169.27 67.682V85.1087C169.276 85.186 169.247 85.2619 169.192 85.3161C169.137 85.3703 169.061 85.3975 168.984 85.3904Z" fill="#231F20"/>
<path d="M162.673 85.3904C162.601 85.3904 162.533 85.362 162.483 85.3113C162.432 85.2607 162.404 85.192 162.404 85.1204V63.9783C162.404 63.8291 162.524 63.7083 162.673 63.7083C162.821 63.7083 162.941 63.8291 162.941 63.9783V85.1087C162.944 85.1823 162.918 85.254 162.867 85.3072C162.816 85.3604 162.746 85.3905 162.673 85.3904Z" fill="#231F20"/>
<path d="M156.361 85.3904C156.289 85.3921 156.22 85.3641 156.169 85.3131C156.119 85.2621 156.091 85.1925 156.092 85.1204V59.2826C156.112 59.1503 156.225 59.0523 156.358 59.0523C156.491 59.0523 156.604 59.1503 156.624 59.2826V85.1087C156.629 85.1817 156.603 85.2535 156.553 85.307C156.503 85.3604 156.434 85.3906 156.361 85.3904Z" fill="#231F20"/>
<path d="M136.223 6.2863C136.077 6.28634 135.957 6.16899 135.954 6.02217V0.692607C135.954 0.543491 136.074 0.422607 136.223 0.422607C136.371 0.422607 136.491 0.543491 136.491 0.692607V6.02217C136.488 6.16899 136.369 6.28634 136.223 6.2863Z" fill="#231F20"/>
<path d="M136.97 7.43087H135.469L128.994 34.2196H143.451L136.97 7.43087Z" fill="#231F20"/>
<path fill-rule="evenodd" clip-rule="evenodd" d="M128.995 34.5072H143.446C143.536 34.5077 143.622 34.4666 143.679 34.3957C143.733 34.326 143.753 34.2351 143.732 34.1491L137.256 7.3663C137.224 7.23319 137.107 7.13892 136.97 7.13739H135.47C135.334 7.1373 135.217 7.23288 135.19 7.3663L128.714 34.1491C128.693 34.2351 128.713 34.326 128.767 34.3957C128.823 34.465 128.906 34.5059 128.995 34.5072ZM143.078 33.9202H129.368L135.703 7.72435H136.743L143.078 33.9202Z" fill="#231F20"/>
<rect x="136.965" y="7.43674" width="1.48887" height="2.00739" transform="rotate(-180 136.965 7.43674)" fill="#231F20"/>
<path fill-rule="evenodd" clip-rule="evenodd" d="M135.458 7.72434H136.964C137.116 7.71208 137.233 7.58421 137.233 7.43087V5.42348C137.233 5.26139 137.102 5.13 136.941 5.13H135.458C135.297 5.13 135.166 5.26139 135.166 5.42348V7.43087C135.166 7.59295 135.297 7.72434 135.458 7.72434ZM136.696 7.13739H135.797V5.71695H136.696V7.13739Z" fill="#231F20"/>
<path d="M133.064 33.3391V26.9941L136.223 21.6528L139.382 26.9941V33.3391H142.418V84.1167H130.028V33.3391H133.064Z" fill="#E7816B"/>
<path fill-rule="evenodd" clip-rule="evenodd" d="M130.028 84.3867H142.412C142.558 84.3868 142.678 84.2694 142.681 84.1226V33.345C142.681 33.2739 142.652 33.2058 142.602 33.1561C142.551 33.1064 142.483 33.0793 142.412 33.0809H139.645V27C139.645 26.9527 139.633 26.9061 139.61 26.865L136.451 21.5237C136.4 21.4475 136.315 21.4018 136.223 21.4018C136.132 21.4018 136.047 21.4475 135.996 21.5237L132.837 26.865C132.814 26.9061 132.801 26.9527 132.802 27V33.075H130.028C129.883 33.075 129.766 33.1933 129.766 33.3391V84.1167C129.766 84.2636 129.882 84.3835 130.028 84.3867ZM142.15 83.8467H130.297V33.6091H133.064C133.212 33.606 133.33 33.4869 133.333 33.3391V27.0646L136.223 22.1752L139.113 27.0646V33.3391C139.113 33.4882 139.234 33.6091 139.382 33.6091H142.15V83.8467Z" fill="#231F20"/>
<path d="M142.412 38.2578H130.028C129.896 38.2382 129.799 38.1245 129.799 37.9908C129.799 37.857 129.896 37.7434 130.028 37.7237H142.412C142.516 37.7081 142.62 37.7553 142.677 37.8444C142.734 37.9335 142.734 38.048 142.677 38.1371C142.62 38.2262 142.516 38.2734 142.412 38.2578Z" fill="#231F20"/>
<path d="M138.412 47.9367H140.368V41.5741C140.368 41.0283 139.387 40.1478 139.387 40.1478C139.387 40.1478 138.412 41.0283 138.412 41.5741V47.9367Z" fill="#231F20"/>
<path d="M135.242 47.9367H137.21V41.5741C137.21 41.0283 136.229 40.1478 136.229 40.1478C136.229 40.1478 135.248 41.0283 135.248 41.5741L135.242 47.9367Z" fill="#231F20"/>
<path d="M132.077 47.9367H134.033V41.5741C134.033 41.0283 133.058 40.1478 133.058 40.1478C133.058 40.1478 132.077 41.0283 132.077 41.5741V47.9367Z" fill="#231F20"/>
<path d="M138.412 59.8696H140.368V53.4776C140.368 52.9376 139.387 52.0513 139.387 52.0513C139.387 52.0513 138.412 52.9376 138.412 53.4776V59.8696Z" fill="#231F20"/>
<path d="M135.242 59.8696H137.21V53.4776C137.21 52.9376 136.229 52.0513 136.229 52.0513C136.229 52.0513 135.248 52.9376 135.248 53.4776L135.242 59.8696Z" fill="#231F20"/>
<path d="M132.077 59.8696H134.033V53.4776C134.033 52.9376 133.058 52.0513 133.058 52.0513C133.058 52.0513 132.077 52.9376 132.077 53.4776V59.8696Z" fill="#231F20"/>
<path d="M138.412 71.7554H140.368V65.387C140.368 64.8411 139.387 63.9606 139.387 63.9606C139.387 63.9606 138.412 64.8411 138.412 65.387V71.7554Z" fill="#231F20"/>
<path d="M135.242 71.7554H137.21V65.387C137.21 64.8411 136.229 63.9606 136.229 63.9606C136.229 63.9606 135.248 64.8411 135.248 65.387L135.242 71.7554Z" fill="#231F20"/>
<path d="M132.077 71.7554H134.033V65.387C134.033 64.8411 133.058 63.9606 133.058 63.9606C133.058 63.9606 132.077 64.8411 132.077 65.387V71.7554Z" fill="#231F20"/>
<path d="M141.489 50.4783H130.98C130.832 50.4751 130.714 50.3561 130.711 50.2083C130.714 50.0614 130.833 49.9441 130.98 49.9441H141.489C141.635 49.9441 141.755 50.0614 141.758 50.2083C141.755 50.3561 141.636 50.4751 141.489 50.4783Z" fill="#231F20"/>
<path d="M141.49 62.6107H130.98C130.876 62.6262 130.772 62.579 130.715 62.4899C130.658 62.4008 130.658 62.2863 130.715 62.1973C130.772 62.1082 130.876 62.0609 130.98 62.0765H141.49C141.594 62.0609 141.698 62.1082 141.755 62.1973C141.812 62.2863 141.812 62.4008 141.755 62.4899C141.698 62.579 141.594 62.6262 141.49 62.6107Z" fill="#231F20"/>
<path d="M141.974 75.2713H130.472C130.326 75.2713 130.206 75.154 130.203 75.0072C130.206 74.8594 130.325 74.7403 130.472 74.7372H141.974C142.121 74.7403 142.239 74.8594 142.243 75.0072C142.239 75.154 142.12 75.2713 141.974 75.2713Z" fill="#231F20"/>
<path d="M144.473 13.6115L141.519 24.9222H147.427L144.473 13.6115Z" fill="#231F20"/>
<path fill-rule="evenodd" clip-rule="evenodd" d="M141.519 25.2391H147.428C147.527 25.2356 147.619 25.1829 147.673 25.0983C147.726 25.0258 147.743 24.9327 147.72 24.8459L144.8 13.5352C144.763 13.4042 144.644 13.3138 144.508 13.3138C144.373 13.3138 144.254 13.4042 144.216 13.5352L141.239 24.8693C141.215 24.9571 141.234 25.0511 141.291 25.1217C141.345 25.194 141.429 25.2373 141.519 25.2391ZM147.031 24.6522H141.881L144.456 14.7854L147.031 24.6522Z" fill="#231F20"/>
<path d="M146.365 24.9222L146.242 43.7752L145.115 46.7922V84.1167H141.489V46.4107L142.371 44.4326V24.9222H146.365Z" fill="#E7816B"/>
<path fill-rule="evenodd" clip-rule="evenodd" d="M141.49 84.3867H145.116C145.263 84.3836 145.381 84.2645 145.384 84.1167V46.8391L146.482 43.8691C146.488 43.8381 146.488 43.8063 146.482 43.7752L146.61 24.9222C146.61 24.8493 146.58 24.7797 146.529 24.7285C146.479 24.6796 146.412 24.6522 146.342 24.6522H142.348C142.2 24.6522 142.08 24.7731 142.08 24.9222V44.3739L141.221 46.305C141.215 46.34 141.215 46.3757 141.221 46.4107V84.1167C141.224 84.2645 141.343 84.3836 141.49 84.3867ZM144.847 83.8467H141.758L141.782 46.4693L142.64 44.5441C142.646 44.5072 142.646 44.4696 142.64 44.4326V25.1863H146.079L145.956 43.7224L144.847 46.6924C144.842 46.7235 144.842 46.7552 144.847 46.7863V83.8467Z" fill="#231F20"/>
<path d="M146.283 37.442H142.372C142.267 37.4575 142.164 37.4103 142.106 37.3212C142.049 37.2321 142.049 37.1176 142.106 37.0286C142.164 36.9395 142.267 36.8922 142.372 36.9078H146.283C146.388 36.8922 146.492 36.9395 146.549 37.0286C146.606 37.1176 146.606 37.2321 146.549 37.3212C146.492 37.4103 146.388 37.4575 146.283 37.442Z" fill="#231F20"/>
<path d="M145.116 47.0563H141.49C141.385 47.0719 141.282 47.0247 141.225 46.9356C141.167 46.8465 141.167 46.732 141.225 46.6429C141.282 46.5538 141.385 46.5066 141.49 46.5222H145.116C145.22 46.5066 145.324 46.5538 145.381 46.6429C145.438 46.732 145.438 46.8465 145.381 46.9356C145.324 47.0247 145.22 47.0719 145.116 47.0563Z" fill="#231F20"/>
<path d="M127.973 13.6115L130.927 24.9222H125.019L127.973 13.6115Z" fill="#231F20"/>
<path fill-rule="evenodd" clip-rule="evenodd" d="M124.785 25.1217C124.841 25.1942 124.927 25.2374 125.018 25.2391H130.927C131.023 25.2429 131.115 25.199 131.172 25.1217C131.229 25.0511 131.249 24.9571 131.225 24.8693L128.27 13.5587C128.233 13.4277 128.114 13.3373 127.978 13.3373C127.843 13.3373 127.724 13.4277 127.686 13.5587L124.732 24.8693C124.711 24.9571 124.73 25.0499 124.785 25.1217ZM127.973 14.7854L130.547 24.6522H125.398L127.973 14.7854Z" fill="#231F20"/>
<path d="M126.081 24.9222L126.204 43.7752L127.331 46.7922V84.1167H130.956V46.4107L130.075 44.4326V24.9222H126.081Z" fill="#E7816B"/>
<path fill-rule="evenodd" clip-rule="evenodd" d="M127.331 84.3867H130.957C131.099 84.3776 131.211 84.2602 131.214 84.1167V46.4107C131.22 46.3757 131.22 46.34 131.214 46.305L130.355 44.3739V24.9222C130.355 24.7731 130.235 24.6522 130.087 24.6522H126.093C126.021 24.6488 125.951 24.6762 125.899 24.7275C125.848 24.7789 125.821 24.8496 125.824 24.9222L125.953 43.7752C125.95 43.8065 125.95 43.8379 125.953 43.8691L127.062 46.8391V84.1167C127.065 84.2645 127.184 84.3836 127.331 84.3867ZM130.688 83.8467H127.599L127.582 46.7863C127.587 46.7552 127.587 46.7235 127.582 46.6924L126.473 43.7224L126.35 25.1863H129.83V44.4326C129.822 44.4693 129.822 44.5074 129.83 44.5441L130.688 46.4693V83.8467Z" fill="#231F20"/>
<path d="M130.075 37.442H126.163C126.058 37.4575 125.955 37.4103 125.897 37.3212C125.84 37.2321 125.84 37.1176 125.897 37.0286C125.955 36.9395 126.058 36.8922 126.163 36.9078H130.075C130.179 36.8922 130.283 36.9395 130.34 37.0286C130.397 37.1176 130.397 37.2321 130.34 37.3212C130.283 37.4103 130.179 37.4575 130.075 37.442Z" fill="#231F20"/>
<path d="M130.956 47.0563H127.331C127.226 47.0719 127.122 47.0247 127.065 46.9356C127.008 46.8465 127.008 46.732 127.065 46.6429C127.122 46.5538 127.226 46.5066 127.331 46.5222H130.956C131.061 46.5066 131.164 46.5538 131.222 46.6429C131.279 46.732 131.279 46.8465 131.222 46.9356C131.164 47.0247 131.061 47.0719 130.956 47.0563Z" fill="#231F20"/>
<path d="M144.473 14.3452C144.333 14.3393 144.222 14.227 144.216 14.087V11.4398C144.216 11.2907 144.336 11.1698 144.484 11.1698C144.633 11.1698 144.753 11.2907 144.753 11.4398V14.087C144.75 14.1586 144.719 14.2261 144.666 14.2745C144.613 14.323 144.544 14.3484 144.473 14.3452Z" fill="#231F20"/>
<path d="M127.973 14.3452C127.901 14.3468 127.832 14.3189 127.781 14.2679C127.73 14.2169 127.702 14.1473 127.704 14.0752V11.4398C127.689 11.3349 127.735 11.2306 127.824 11.1732C127.913 11.1157 128.027 11.1157 128.115 11.1732C128.204 11.2306 128.251 11.3349 128.235 11.4398V14.087C128.232 14.2305 128.115 14.3453 127.973 14.3452Z" fill="#231F20"/>
<rect x="123.29" y="84.1167" width="25.8772" height="19.5339" fill="#E7816B"/>
<path fill-rule="evenodd" clip-rule="evenodd" d="M123.29 103.891H149.173C149.31 103.892 149.424 103.787 149.436 103.651V84.1167C149.436 83.9699 149.319 83.8499 149.173 83.8467H123.29C123.143 83.8499 123.025 83.9689 123.021 84.1167V103.627C123.025 103.774 123.144 103.891 123.29 103.891ZM148.887 103.357H123.559V84.3867H148.887V103.357Z" fill="#231F20"/>
<path d="M135.242 34.2137H137.21V27.8511C137.21 27.3052 136.229 26.4248 136.229 26.4248C136.229 26.4248 135.248 27.3052 135.248 27.8511L135.242 34.2137Z" fill="#231F20"/>
<rect x="180.673" y="87.797" width="31.5057" height="2.67065" transform="rotate(-180 180.673 87.797)" fill="white"/>
<path fill-rule="evenodd" clip-rule="evenodd" d="M149.149 88.0435H180.678C180.821 88.0435 180.938 87.9288 180.941 87.7852V85.1087C180.941 84.9628 180.824 84.8446 180.678 84.8446H149.149C149.079 84.843 149.01 84.8701 148.96 84.9198C148.909 84.9695 148.881 85.0376 148.881 85.1087V87.7793C148.881 87.8504 148.909 87.9185 148.96 87.9682C149.01 88.0179 149.079 88.0451 149.149 88.0435ZM180.416 87.5093H149.436V85.3728H180.416V87.5093Z" fill="#231F20"/>
<rect x="180.673" y="103.645" width="31.5057" height="15.8537" transform="rotate(-180 180.673 103.645)" fill="white"/>
<path fill-rule="evenodd" clip-rule="evenodd" d="M149.15 103.891H180.679C180.824 103.891 180.941 103.773 180.941 103.627V87.7793C180.943 87.7083 180.916 87.6396 180.866 87.5888C180.817 87.538 180.749 87.5093 180.679 87.5093H149.15C149.078 87.5077 149.009 87.5356 148.958 87.5866C148.907 87.6376 148.879 87.7073 148.881 87.7793V103.627C148.881 103.698 148.909 103.766 148.96 103.816C149.011 103.866 149.079 103.893 149.15 103.891ZM180.416 103.357H149.436V88.0435H180.416V103.357Z" fill="#231F20"/>
<path d="M150.055 85.3904C149.984 85.3905 149.916 85.3618 149.867 85.311C149.817 85.2602 149.79 85.1915 149.792 85.1204V53.7241C149.776 53.6193 149.823 53.515 149.912 53.4575C150.001 53.4001 150.114 53.4001 150.203 53.4575C150.292 53.515 150.339 53.6193 150.323 53.7241V85.1087C150.328 85.1828 150.302 85.2555 150.251 85.3091C150.2 85.3627 150.128 85.3923 150.055 85.3904Z" fill="#231F20"/>
<path d="M64.2842 104.478C64.1264 104.475 63.9984 104.349 63.9922 104.191C63.9907 104.113 64.02 104.038 64.0736 103.981C64.1273 103.925 64.2009 103.893 64.2783 103.891C67.3508 103.792 70.2298 102.36 72.1723 99.9646C72.2244 99.9002 72.3002 99.86 72.3825 99.853C72.4648 99.847 72.5456 99.8769 72.6043 99.9352C74.079 101.467 76.0058 102.48 78.0986 102.823C80.1844 103.137 82.2863 102.366 83.6804 100.775C83.778 100.654 83.952 100.631 84.0774 100.722C87.4755 102.972 92.0251 102.204 94.5053 98.9609C94.563 98.8889 94.6499 98.8471 94.7418 98.8471C94.8337 98.8471 94.9206 98.8889 94.9783 98.9609C97.413 102.4 102.761 103.328 106.2 100.91C106.322 100.82 106.492 100.843 106.586 100.962C107.487 101.984 108.777 102.573 110.136 102.582C111.492 102.659 112.816 102.143 113.767 101.168C113.833 101.101 113.926 101.069 114.018 101.08C114.109 101.093 114.189 101.147 114.234 101.227C114.616 101.825 115.22 102.244 115.912 102.39C116.604 102.536 117.325 102.396 117.913 102.001C118.043 101.907 118.223 101.933 118.321 102.06C118.367 102.123 118.386 102.202 118.374 102.279C118.362 102.356 118.32 102.425 118.257 102.471C117.544 102.982 116.647 103.162 115.793 102.964C115.059 102.819 114.401 102.415 113.937 101.825C111.71 103.707 108.426 103.583 106.346 101.538C102.767 103.885 97.4247 102.976 94.7739 99.6183C92.0933 102.792 87.5096 103.522 83.984 101.338C82.454 102.944 80.2471 103.709 78.0577 103.392C75.9422 103.058 73.9829 102.069 72.4525 100.563C70.402 102.963 67.4413 104.384 64.2959 104.478H64.2842Z" fill="#D1D3D4"/>
<path d="M105.751 107.067C104.617 107.104 103.517 106.681 102.697 105.893C100.216 107.687 96.7791 107.254 94.8147 104.901C92.6127 106.38 89.9461 106.992 87.3237 106.621C87.2194 106.605 87.1314 106.534 87.0928 106.436C87.0542 106.337 87.0708 106.225 87.1365 106.142C87.2022 106.059 87.307 106.018 87.4113 106.034C89.9786 106.407 92.5906 105.777 94.7096 104.273C94.774 104.227 94.8535 104.208 94.9315 104.22C95.0084 104.236 95.0768 104.28 95.1242 104.343C95.9797 105.462 97.245 106.191 98.638 106.366C100.031 106.541 101.436 106.149 102.539 105.277C102.599 105.224 102.677 105.199 102.755 105.206C102.833 105.213 102.904 105.251 102.954 105.312C103.783 106.209 104.993 106.647 106.2 106.486C107.448 106.291 108.657 105.894 109.779 105.312C109.851 105.28 109.931 105.279 110.004 105.307C110.076 105.336 110.134 105.393 110.165 105.464C110.23 105.612 110.165 105.785 110.019 105.852C108.836 106.447 107.563 106.843 106.253 107.026C106.086 107.048 105.919 107.062 105.751 107.067Z" fill="#D1D3D4"/>
<path d="M71.5768 107.601C71.4325 107.599 71.3109 107.492 71.2907 107.348C71.2696 107.189 71.378 107.041 71.5359 107.014C72.7371 106.829 73.8392 106.236 74.6597 105.335C74.7133 105.279 74.7864 105.245 74.864 105.241C74.9425 105.237 75.0191 105.267 75.0742 105.323C75.6729 105.951 76.4736 106.344 77.3338 106.433C78.169 106.517 78.9863 106.151 79.4824 105.47C79.5355 105.389 79.6255 105.341 79.7218 105.341C79.8166 105.348 79.9049 105.392 79.967 105.464C80.5426 106.252 81.5721 106.552 82.4777 106.198C82.5745 106.152 82.6885 106.163 82.7747 106.227C82.861 106.291 82.9057 106.397 82.8912 106.503C82.8767 106.61 82.8054 106.7 82.7054 106.738C81.6765 107.14 80.5086 106.888 79.7335 106.098C79.0965 106.755 78.2022 107.092 77.2929 107.02C76.3964 106.934 75.5521 106.557 74.8874 105.946C73.9995 106.828 72.8572 107.405 71.6235 107.595L71.5768 107.601Z" fill="#D1D3D4"/>
</svg>
